<mxfile host="app.diagrams.net" modified="2021-11-23T03:27:44.430Z" agent="5.0 (Windows NT 10.0; Win64; x64) AppleWebKit/537.36 (KHTML, like Gecko) Chrome/96.0.4664.45 Safari/537.36" etag="DFHlE5mrFR5vjZfUZo-2" version="15.5.2" type="github" pages="4">
  <diagram id="jLa3jzCbuuamsw_ghgtM" name="主业务逻辑">
    <mxGraphModel dx="1422" dy="762" grid="1" gridSize="10" guides="1" tooltips="1" connect="1" arrows="1" fold="1" page="1" pageScale="1" pageWidth="827" pageHeight="1169" math="0" shadow="0">
      <root>
        <mxCell id="uejNF2khlq3OLj7UzS38-0" />
        <mxCell id="uejNF2khlq3OLj7UzS38-1" parent="uejNF2khlq3OLj7UzS38-0" />
        <mxCell id="uejNF2khlq3OLj7UzS38-10" style="edgeStyle=orthogonalEdgeStyle;rounded=0;orthogonalLoop=1;jettySize=auto;html=1;fontColor=#000000;exitX=0.5;exitY=1;exitDx=0;exitDy=0;" edge="1" parent="uejNF2khlq3OLj7UzS38-1" source="uejNF2khlq3OLj7UzS38-2" target="uejNF2khlq3OLj7UzS38-13">
          <mxGeometry relative="1" as="geometry" />
        </mxCell>
        <mxCell id="uejNF2khlq3OLj7UzS38-2" value="主动发退：&lt;br&gt;来自任务域&lt;br&gt;TaskController::&lt;br&gt;callbackTaskMessage" style="rounded=0;whiteSpace=wrap;html=1;" vertex="1" parent="uejNF2khlq3OLj7UzS38-1">
          <mxGeometry x="100" y="230" width="120" height="60" as="geometry" />
        </mxCell>
        <mxCell id="uejNF2khlq3OLj7UzS38-11" style="edgeStyle=orthogonalEdgeStyle;rounded=0;orthogonalLoop=1;jettySize=auto;html=1;fontColor=#000000;" edge="1" parent="uejNF2khlq3OLj7UzS38-1" source="uejNF2khlq3OLj7UzS38-3" target="uejNF2khlq3OLj7UzS38-5">
          <mxGeometry relative="1" as="geometry">
            <mxPoint x="320" y="460" as="targetPoint" />
          </mxGeometry>
        </mxCell>
        <mxCell id="uejNF2khlq3OLj7UzS38-3" value="店间调拨：&lt;br&gt;rabbitMQ消息&lt;br&gt;rabbitMessageService::&lt;br&gt;processTranStoreItems" style="rounded=0;whiteSpace=wrap;html=1;" vertex="1" parent="uejNF2khlq3OLj7UzS38-1">
          <mxGeometry x="270" y="230" width="154" height="60" as="geometry" />
        </mxCell>
        <mxCell id="uejNF2khlq3OLj7UzS38-12" style="edgeStyle=orthogonalEdgeStyle;rounded=0;orthogonalLoop=1;jettySize=auto;html=1;fontColor=#000000;exitX=0.5;exitY=1;exitDx=0;exitDy=0;entryX=1;entryY=0.5;entryDx=0;entryDy=0;" edge="1" parent="uejNF2khlq3OLj7UzS38-1" source="uejNF2khlq3OLj7UzS38-4" target="uejNF2khlq3OLj7UzS38-5">
          <mxGeometry relative="1" as="geometry" />
        </mxCell>
        <mxCell id="uejNF2khlq3OLj7UzS38-4" value="&lt;span style=&quot;background-color: rgb(255 , 255 , 255)&quot;&gt;其它业务类型：&lt;br&gt;商采下发&lt;br&gt;&lt;font face=&quot;jetbrains mono, monospace&quot;&gt;&lt;span style=&quot;font-size: 13.0667px&quot;&gt;SupplierController::&lt;/span&gt;&lt;/font&gt;&lt;br&gt;&lt;font face=&quot;jetbrains mono, monospace&quot;&gt;&lt;span style=&quot;font-size: 9.8pt&quot;&gt;recptSupplierCenterInfo&lt;/span&gt;&lt;/font&gt;&lt;/span&gt;" style="rounded=0;whiteSpace=wrap;html=1;" vertex="1" parent="uejNF2khlq3OLj7UzS38-1">
          <mxGeometry x="470" y="230" width="170" height="60" as="geometry" />
        </mxCell>
        <mxCell id="uejNF2khlq3OLj7UzS38-16" style="edgeStyle=orthogonalEdgeStyle;rounded=0;orthogonalLoop=1;jettySize=auto;html=1;fontColor=#000000;" edge="1" parent="uejNF2khlq3OLj7UzS38-1" source="uejNF2khlq3OLj7UzS38-5" target="uejNF2khlq3OLj7UzS38-15">
          <mxGeometry relative="1" as="geometry" />
        </mxCell>
        <mxCell id="uejNF2khlq3OLj7UzS38-5" value="产单" style="ellipse;whiteSpace=wrap;html=1;labelBackgroundColor=#FFFFFF;fontColor=#000000;" vertex="1" parent="uejNF2khlq3OLj7UzS38-1">
          <mxGeometry x="237" y="370" width="220" height="100" as="geometry" />
        </mxCell>
        <mxCell id="uejNF2khlq3OLj7UzS38-7" style="edgeStyle=orthogonalEdgeStyle;rounded=0;orthogonalLoop=1;jettySize=auto;html=1;fontColor=#000000;" edge="1" parent="uejNF2khlq3OLj7UzS38-1" source="uejNF2khlq3OLj7UzS38-6" target="uejNF2khlq3OLj7UzS38-2">
          <mxGeometry relative="1" as="geometry" />
        </mxCell>
        <mxCell id="uejNF2khlq3OLj7UzS38-8" style="edgeStyle=orthogonalEdgeStyle;rounded=0;orthogonalLoop=1;jettySize=auto;html=1;fontColor=#000000;" edge="1" parent="uejNF2khlq3OLj7UzS38-1" source="uejNF2khlq3OLj7UzS38-6" target="uejNF2khlq3OLj7UzS38-3">
          <mxGeometry relative="1" as="geometry" />
        </mxCell>
        <mxCell id="uejNF2khlq3OLj7UzS38-9" style="edgeStyle=orthogonalEdgeStyle;rounded=0;orthogonalLoop=1;jettySize=auto;html=1;fontColor=#000000;" edge="1" parent="uejNF2khlq3OLj7UzS38-1" source="uejNF2khlq3OLj7UzS38-6" target="uejNF2khlq3OLj7UzS38-4">
          <mxGeometry relative="1" as="geometry" />
        </mxCell>
        <mxCell id="uejNF2khlq3OLj7UzS38-6" value="退货需求" style="rounded=0;whiteSpace=wrap;html=1;labelBackgroundColor=#FFFFFF;fontColor=#000000;" vertex="1" parent="uejNF2khlq3OLj7UzS38-1">
          <mxGeometry x="313" y="60" width="68" height="90" as="geometry" />
        </mxCell>
        <mxCell id="uejNF2khlq3OLj7UzS38-14" style="edgeStyle=orthogonalEdgeStyle;rounded=0;orthogonalLoop=1;jettySize=auto;html=1;exitX=0.5;exitY=1;exitDx=0;exitDy=0;fontColor=#000000;" edge="1" parent="uejNF2khlq3OLj7UzS38-1" source="uejNF2khlq3OLj7UzS38-13" target="uejNF2khlq3OLj7UzS38-5">
          <mxGeometry relative="1" as="geometry" />
        </mxCell>
        <mxCell id="uejNF2khlq3OLj7UzS38-13" value="拣货的同时产单" style="rounded=1;whiteSpace=wrap;html=1;labelBackgroundColor=#FFFFFF;fontColor=#000000;" vertex="1" parent="uejNF2khlq3OLj7UzS38-1">
          <mxGeometry x="100" y="330" width="120" height="60" as="geometry" />
        </mxCell>
        <mxCell id="uejNF2khlq3OLj7UzS38-15" value="拣货、封箱、封板&lt;br&gt;&lt;span style=&quot;background-color: rgb(248 , 249 , 250)&quot;&gt;来自任务域&lt;/span&gt;&lt;br style=&quot;background-color: rgb(248 , 249 , 250)&quot;&gt;&lt;span style=&quot;background-color: rgb(248 , 249 , 250)&quot;&gt;TaskController::&lt;/span&gt;&lt;br style=&quot;background-color: rgb(248 , 249 , 250)&quot;&gt;&lt;span style=&quot;background-color: rgb(248 , 249 , 250)&quot;&gt;callbackTaskMessage&lt;/span&gt;" style="rounded=0;whiteSpace=wrap;html=1;labelBackgroundColor=#FFFFFF;fontColor=#000000;" vertex="1" parent="uejNF2khlq3OLj7UzS38-1">
          <mxGeometry x="271" y="525" width="153" height="60" as="geometry" />
        </mxCell>
      </root>
    </mxGraphModel>
  </diagram>
  <diagram id="TkbjgMijF4AUuQSOwAlx" name="产生拣货批单">
    <mxGraphModel dx="1662" dy="762" grid="1" gridSize="10" guides="1" tooltips="1" connect="1" arrows="1" fold="1" page="1" pageScale="1" pageWidth="827" pageHeight="1169" math="0" shadow="0">
      <root>
        <mxCell id="0" />
        <mxCell id="1" parent="0" />
        <mxCell id="Ado9UdjXi3obDL_0Ov0g-3" value="" style="edgeStyle=orthogonalEdgeStyle;rounded=0;orthogonalLoop=1;jettySize=auto;html=1;" parent="1" source="Ado9UdjXi3obDL_0Ov0g-1" target="Ado9UdjXi3obDL_0Ov0g-2" edge="1">
          <mxGeometry relative="1" as="geometry" />
        </mxCell>
        <mxCell id="Ado9UdjXi3obDL_0Ov0g-1" value="RevertController：supplierRevert()&lt;br&gt;主动发退" style="rounded=0;whiteSpace=wrap;html=1;" parent="1" vertex="1">
          <mxGeometry x="100" y="150" width="120" height="60" as="geometry" />
        </mxCell>
        <mxCell id="Ado9UdjXi3obDL_0Ov0g-5" value="" style="edgeStyle=orthogonalEdgeStyle;rounded=0;orthogonalLoop=1;jettySize=auto;html=1;" parent="1" source="Ado9UdjXi3obDL_0Ov0g-2" target="Ado9UdjXi3obDL_0Ov0g-4" edge="1">
          <mxGeometry relative="1" as="geometry" />
        </mxCell>
        <mxCell id="Ado9UdjXi3obDL_0Ov0g-2" value="RevertServiceImpl：&lt;br&gt;supplierRevert()" style="rounded=0;whiteSpace=wrap;html=1;" parent="1" vertex="1">
          <mxGeometry x="300" y="150" width="120" height="60" as="geometry" />
        </mxCell>
        <mxCell id="Ado9UdjXi3obDL_0Ov0g-7" value="" style="edgeStyle=orthogonalEdgeStyle;rounded=0;orthogonalLoop=1;jettySize=auto;html=1;" parent="1" source="Ado9UdjXi3obDL_0Ov0g-4" target="Ado9UdjXi3obDL_0Ov0g-6" edge="1">
          <mxGeometry relative="1" as="geometry" />
        </mxCell>
        <mxCell id="Ado9UdjXi3obDL_0Ov0g-4" value="生成batchId" style="rounded=0;whiteSpace=wrap;html=1;" parent="1" vertex="1">
          <mxGeometry x="500" y="150" width="120" height="60" as="geometry" />
        </mxCell>
        <mxCell id="Ado9UdjXi3obDL_0Ov0g-9" value="" style="edgeStyle=orthogonalEdgeStyle;rounded=0;orthogonalLoop=1;jettySize=auto;html=1;" parent="1" source="Ado9UdjXi3obDL_0Ov0g-6" target="Ado9UdjXi3obDL_0Ov0g-8" edge="1">
          <mxGeometry relative="1" as="geometry" />
        </mxCell>
        <mxCell id="Ado9UdjXi3obDL_0Ov0g-6" value="mars-api:&lt;br&gt;generatePickingTb&lt;br&gt;生成任务数据" style="rounded=0;whiteSpace=wrap;html=1;" parent="1" vertex="1">
          <mxGeometry x="730" y="150" width="120" height="60" as="geometry" />
        </mxCell>
        <mxCell id="Ado9UdjXi3obDL_0Ov0g-8" value="RevertBatchInfoMbService:&lt;br&gt;insert&lt;br&gt;生成拣货批单" style="rounded=0;whiteSpace=wrap;html=1;fillColor=#ffe6cc;strokeColor=#d79b00;" parent="1" vertex="1">
          <mxGeometry x="920" y="150" width="170" height="60" as="geometry" />
        </mxCell>
        <mxCell id="Ado9UdjXi3obDL_0Ov0g-12" style="edgeStyle=orthogonalEdgeStyle;rounded=0;orthogonalLoop=1;jettySize=auto;html=1;" parent="1" source="Ado9UdjXi3obDL_0Ov0g-10" target="Ado9UdjXi3obDL_0Ov0g-11" edge="1">
          <mxGeometry relative="1" as="geometry" />
        </mxCell>
        <mxCell id="Ado9UdjXi3obDL_0Ov0g-10" value="RevertController：&lt;br&gt;selectItemsList()&lt;br&gt;选取品项" style="rounded=0;whiteSpace=wrap;html=1;" parent="1" vertex="1">
          <mxGeometry x="100" y="290" width="120" height="60" as="geometry" />
        </mxCell>
        <mxCell id="Ado9UdjXi3obDL_0Ov0g-14" value="" style="edgeStyle=orthogonalEdgeStyle;rounded=0;orthogonalLoop=1;jettySize=auto;html=1;" parent="1" source="Ado9UdjXi3obDL_0Ov0g-11" target="Ado9UdjXi3obDL_0Ov0g-13" edge="1">
          <mxGeometry relative="1" as="geometry" />
        </mxCell>
        <mxCell id="Ado9UdjXi3obDL_0Ov0g-11" value="RevertServiceImpl：&lt;br&gt;selectItemsList()" style="rounded=0;whiteSpace=wrap;html=1;" parent="1" vertex="1">
          <mxGeometry x="300" y="290" width="120" height="60" as="geometry" />
        </mxCell>
        <mxCell id="Ado9UdjXi3obDL_0Ov0g-16" value="" style="edgeStyle=orthogonalEdgeStyle;rounded=0;orthogonalLoop=1;jettySize=auto;html=1;" parent="1" source="Ado9UdjXi3obDL_0Ov0g-13" target="Ado9UdjXi3obDL_0Ov0g-15" edge="1">
          <mxGeometry relative="1" as="geometry" />
        </mxCell>
        <mxCell id="Ado9UdjXi3obDL_0Ov0g-13" value="根据货号查询RevertItemsDaily表" style="rounded=0;whiteSpace=wrap;html=1;" parent="1" vertex="1">
          <mxGeometry x="500" y="290" width="120" height="60" as="geometry" />
        </mxCell>
        <mxCell id="Ado9UdjXi3obDL_0Ov0g-24" value="" style="edgeStyle=orthogonalEdgeStyle;rounded=0;orthogonalLoop=1;jettySize=auto;html=1;" parent="1" source="Ado9UdjXi3obDL_0Ov0g-15" target="Ado9UdjXi3obDL_0Ov0g-25" edge="1">
          <mxGeometry relative="1" as="geometry" />
        </mxCell>
        <mxCell id="Ado9UdjXi3obDL_0Ov0g-15" value="RevertServiceImpl：&lt;br&gt;saveTaskInfo()" style="rounded=0;whiteSpace=wrap;html=1;" parent="1" vertex="1">
          <mxGeometry x="730" y="350" width="120" height="60" as="geometry" />
        </mxCell>
        <mxCell id="Ado9UdjXi3obDL_0Ov0g-19" value="" style="edgeStyle=orthogonalEdgeStyle;rounded=0;orthogonalLoop=1;jettySize=auto;html=1;" parent="1" source="Ado9UdjXi3obDL_0Ov0g-17" target="Ado9UdjXi3obDL_0Ov0g-18" edge="1">
          <mxGeometry relative="1" as="geometry" />
        </mxCell>
        <mxCell id="Ado9UdjXi3obDL_0Ov0g-17" value="RevertController：&lt;br&gt;dispatchChannel()&lt;br&gt;店间调货" style="rounded=0;whiteSpace=wrap;html=1;" parent="1" vertex="1">
          <mxGeometry x="100" y="410" width="120" height="60" as="geometry" />
        </mxCell>
        <mxCell id="Ado9UdjXi3obDL_0Ov0g-21" style="edgeStyle=orthogonalEdgeStyle;rounded=0;orthogonalLoop=1;jettySize=auto;html=1;" parent="1" source="Ado9UdjXi3obDL_0Ov0g-18" target="Ado9UdjXi3obDL_0Ov0g-20" edge="1">
          <mxGeometry relative="1" as="geometry" />
        </mxCell>
        <mxCell id="Ado9UdjXi3obDL_0Ov0g-18" value="RevertServiceImpl：&lt;br&gt;dispatchChannel()" style="rounded=0;whiteSpace=wrap;html=1;" parent="1" vertex="1">
          <mxGeometry x="304" y="410" width="120" height="60" as="geometry" />
        </mxCell>
        <mxCell id="Ado9UdjXi3obDL_0Ov0g-22" style="edgeStyle=orthogonalEdgeStyle;rounded=0;orthogonalLoop=1;jettySize=auto;html=1;" parent="1" source="Ado9UdjXi3obDL_0Ov0g-20" target="Ado9UdjXi3obDL_0Ov0g-15" edge="1">
          <mxGeometry relative="1" as="geometry" />
        </mxCell>
        <mxCell id="Ado9UdjXi3obDL_0Ov0g-20" value="根据上游单号查询RevertItemsDaily表" style="rounded=0;whiteSpace=wrap;html=1;" parent="1" vertex="1">
          <mxGeometry x="500" y="410" width="120" height="60" as="geometry" />
        </mxCell>
        <mxCell id="Ado9UdjXi3obDL_0Ov0g-28" style="edgeStyle=orthogonalEdgeStyle;rounded=0;orthogonalLoop=1;jettySize=auto;html=1;" parent="1" source="Ado9UdjXi3obDL_0Ov0g-23" target="Ado9UdjXi3obDL_0Ov0g-27" edge="1">
          <mxGeometry relative="1" as="geometry" />
        </mxCell>
        <mxCell id="Ado9UdjXi3obDL_0Ov0g-48" value="Y" style="edgeLabel;html=1;align=center;verticalAlign=middle;resizable=0;points=[];" parent="Ado9UdjXi3obDL_0Ov0g-28" vertex="1" connectable="0">
          <mxGeometry x="-0.4198" relative="1" as="geometry">
            <mxPoint as="offset" />
          </mxGeometry>
        </mxCell>
        <mxCell id="Ado9UdjXi3obDL_0Ov0g-47" value="" style="edgeStyle=orthogonalEdgeStyle;rounded=0;orthogonalLoop=1;jettySize=auto;html=1;" parent="1" source="Ado9UdjXi3obDL_0Ov0g-23" target="Ado9UdjXi3obDL_0Ov0g-50" edge="1">
          <mxGeometry relative="1" as="geometry">
            <mxPoint x="630" y="590" as="targetPoint" />
          </mxGeometry>
        </mxCell>
        <mxCell id="Ado9UdjXi3obDL_0Ov0g-49" value="N" style="edgeLabel;html=1;align=center;verticalAlign=middle;resizable=0;points=[];" parent="Ado9UdjXi3obDL_0Ov0g-47" vertex="1" connectable="0">
          <mxGeometry x="-0.5661" relative="1" as="geometry">
            <mxPoint as="offset" />
          </mxGeometry>
        </mxCell>
        <mxCell id="Ado9UdjXi3obDL_0Ov0g-23" value="是否生成任务" style="rhombus;whiteSpace=wrap;html=1;rounded=0;" parent="1" vertex="1">
          <mxGeometry x="750" y="550" width="80" height="80" as="geometry" />
        </mxCell>
        <mxCell id="Ado9UdjXi3obDL_0Ov0g-26" style="edgeStyle=orthogonalEdgeStyle;rounded=0;orthogonalLoop=1;jettySize=auto;html=1;" parent="1" source="Ado9UdjXi3obDL_0Ov0g-25" target="Ado9UdjXi3obDL_0Ov0g-23" edge="1">
          <mxGeometry relative="1" as="geometry" />
        </mxCell>
        <mxCell id="Ado9UdjXi3obDL_0Ov0g-25" value="mars-api:&lt;br&gt;generatePickingTb&lt;br&gt;生成任务数据" style="rounded=0;whiteSpace=wrap;html=1;" parent="1" vertex="1">
          <mxGeometry x="730" y="450" width="120" height="60" as="geometry" />
        </mxCell>
        <mxCell id="Ado9UdjXi3obDL_0Ov0g-34" value="" style="edgeStyle=orthogonalEdgeStyle;rounded=0;orthogonalLoop=1;jettySize=auto;html=1;" parent="1" source="Ado9UdjXi3obDL_0Ov0g-27" target="Ado9UdjXi3obDL_0Ov0g-33" edge="1">
          <mxGeometry relative="1" as="geometry" />
        </mxCell>
        <mxCell id="Ado9UdjXi3obDL_0Ov0g-27" value="RevertServiceImpl：&lt;br&gt;saveBatchInfo()" style="rounded=0;whiteSpace=wrap;html=1;" parent="1" vertex="1">
          <mxGeometry x="730" y="670" width="120" height="60" as="geometry" />
        </mxCell>
        <mxCell id="Ado9UdjXi3obDL_0Ov0g-37" value="" style="edgeStyle=orthogonalEdgeStyle;rounded=0;orthogonalLoop=1;jettySize=auto;html=1;" parent="1" source="Ado9UdjXi3obDL_0Ov0g-33" target="Ado9UdjXi3obDL_0Ov0g-36" edge="1">
          <mxGeometry relative="1" as="geometry" />
        </mxCell>
        <mxCell id="Ado9UdjXi3obDL_0Ov0g-38" value="Y" style="edgeLabel;html=1;align=center;verticalAlign=middle;resizable=0;points=[];" parent="Ado9UdjXi3obDL_0Ov0g-37" vertex="1" connectable="0">
          <mxGeometry x="-0.2711" relative="1" as="geometry">
            <mxPoint as="offset" />
          </mxGeometry>
        </mxCell>
        <mxCell id="Ado9UdjXi3obDL_0Ov0g-40" value="" style="edgeStyle=orthogonalEdgeStyle;rounded=0;orthogonalLoop=1;jettySize=auto;html=1;" parent="1" source="Ado9UdjXi3obDL_0Ov0g-33" target="Ado9UdjXi3obDL_0Ov0g-43" edge="1">
          <mxGeometry relative="1" as="geometry">
            <mxPoint x="937.5" y="825" as="targetPoint" />
          </mxGeometry>
        </mxCell>
        <mxCell id="Ado9UdjXi3obDL_0Ov0g-42" value="N" style="edgeLabel;html=1;align=center;verticalAlign=middle;resizable=0;points=[];" parent="Ado9UdjXi3obDL_0Ov0g-40" vertex="1" connectable="0">
          <mxGeometry x="-0.1569" relative="1" as="geometry">
            <mxPoint as="offset" />
          </mxGeometry>
        </mxCell>
        <mxCell id="Ado9UdjXi3obDL_0Ov0g-33" value="&lt;span&gt;gtbsBizType&lt;br&gt;?=load&lt;br&gt;&lt;/span&gt;" style="rhombus;whiteSpace=wrap;html=1;rounded=0;" parent="1" vertex="1">
          <mxGeometry x="722.5" y="800" width="135" height="50" as="geometry" />
        </mxCell>
        <mxCell id="Ado9UdjXi3obDL_0Ov0g-60" style="edgeStyle=orthogonalEdgeStyle;rounded=0;orthogonalLoop=1;jettySize=auto;html=1;" parent="1" source="Ado9UdjXi3obDL_0Ov0g-36" target="Ado9UdjXi3obDL_0Ov0g-44" edge="1">
          <mxGeometry relative="1" as="geometry" />
        </mxCell>
        <mxCell id="Ado9UdjXi3obDL_0Ov0g-36" value="RevertCarBatchInfoMbService:&lt;br&gt;insert" style="whiteSpace=wrap;html=1;rounded=0;" parent="1" vertex="1">
          <mxGeometry x="695" y="925" width="190" height="60" as="geometry" />
        </mxCell>
        <mxCell id="Ado9UdjXi3obDL_0Ov0g-45" value="" style="edgeStyle=orthogonalEdgeStyle;rounded=0;orthogonalLoop=1;jettySize=auto;html=1;" parent="1" source="Ado9UdjXi3obDL_0Ov0g-43" target="Ado9UdjXi3obDL_0Ov0g-44" edge="1">
          <mxGeometry relative="1" as="geometry" />
        </mxCell>
        <mxCell id="Ado9UdjXi3obDL_0Ov0g-43" value="RevertBatchInfoMbService:&lt;br&gt;insert&lt;br&gt;生成拣货批单" style="rounded=0;whiteSpace=wrap;html=1;fillColor=#ffe6cc;strokeColor=#d79b00;" parent="1" vertex="1">
          <mxGeometry x="920" y="925" width="170" height="60" as="geometry" />
        </mxCell>
        <mxCell id="Ado9UdjXi3obDL_0Ov0g-44" value="生成载具信息：&lt;br&gt;BoxInfo、BoxItem" style="rounded=0;whiteSpace=wrap;html=1;" parent="1" vertex="1">
          <mxGeometry x="810" y="1080" width="170" height="60" as="geometry" />
        </mxCell>
        <mxCell id="Ado9UdjXi3obDL_0Ov0g-52" style="edgeStyle=orthogonalEdgeStyle;rounded=0;orthogonalLoop=1;jettySize=auto;html=1;" parent="1" source="Ado9UdjXi3obDL_0Ov0g-50" target="Ado9UdjXi3obDL_0Ov0g-51" edge="1">
          <mxGeometry relative="1" as="geometry" />
        </mxCell>
        <mxCell id="Ado9UdjXi3obDL_0Ov0g-50" value="RevertBatchInfoMbService:&lt;br&gt;insert&lt;br&gt;生成拣货批单" style="rounded=0;whiteSpace=wrap;html=1;fillColor=#ffe6cc;strokeColor=#d79b00;" parent="1" vertex="1">
          <mxGeometry x="920" y="560" width="170" height="60" as="geometry" />
        </mxCell>
        <mxCell id="Ado9UdjXi3obDL_0Ov0g-51" value="&lt;div&gt;向外报告异常信息：&lt;/div&gt;&lt;div&gt;允退量不满足OP，生成退货任务失败&lt;/div&gt;" style="rounded=0;whiteSpace=wrap;html=1;fillColor=#e51400;strokeColor=#B20000;fontColor=#ffffff;" parent="1" vertex="1">
          <mxGeometry x="1150" y="560" width="120" height="60" as="geometry" />
        </mxCell>
        <mxCell id="Ado9UdjXi3obDL_0Ov0g-57" style="edgeStyle=orthogonalEdgeStyle;rounded=0;orthogonalLoop=1;jettySize=auto;html=1;" parent="1" source="Ado9UdjXi3obDL_0Ov0g-55" target="Ado9UdjXi3obDL_0Ov0g-56" edge="1">
          <mxGeometry relative="1" as="geometry" />
        </mxCell>
        <mxCell id="Ado9UdjXi3obDL_0Ov0g-55" value="RevertController：&lt;br&gt;palletBoxConfirm()&lt;br&gt;退货开板" style="rounded=0;whiteSpace=wrap;html=1;" parent="1" vertex="1">
          <mxGeometry x="100" y="525" width="120" height="60" as="geometry" />
        </mxCell>
        <mxCell id="Ado9UdjXi3obDL_0Ov0g-59" value="" style="edgeStyle=orthogonalEdgeStyle;rounded=0;orthogonalLoop=1;jettySize=auto;html=1;" parent="1" source="Ado9UdjXi3obDL_0Ov0g-56" target="Ado9UdjXi3obDL_0Ov0g-58" edge="1">
          <mxGeometry relative="1" as="geometry" />
        </mxCell>
        <mxCell id="Ado9UdjXi3obDL_0Ov0g-56" value="RevertServiceImpl：&lt;br&gt;palletBoxConfirm()" style="rounded=0;whiteSpace=wrap;html=1;" parent="1" vertex="1">
          <mxGeometry x="400" y="525" width="120" height="60" as="geometry" />
        </mxCell>
        <mxCell id="Ado9UdjXi3obDL_0Ov0g-62" value="" style="edgeStyle=orthogonalEdgeStyle;rounded=0;orthogonalLoop=1;jettySize=auto;html=1;" parent="1" source="Ado9UdjXi3obDL_0Ov0g-58" target="Ado9UdjXi3obDL_0Ov0g-61" edge="1">
          <mxGeometry relative="1" as="geometry" />
        </mxCell>
        <mxCell id="Ado9UdjXi3obDL_0Ov0g-63" value="N" style="edgeLabel;html=1;align=center;verticalAlign=middle;resizable=0;points=[];" parent="Ado9UdjXi3obDL_0Ov0g-62" vertex="1" connectable="0">
          <mxGeometry x="-0.5509" relative="1" as="geometry">
            <mxPoint as="offset" />
          </mxGeometry>
        </mxCell>
        <mxCell id="Ado9UdjXi3obDL_0Ov0g-65" value="" style="edgeStyle=orthogonalEdgeStyle;rounded=0;orthogonalLoop=1;jettySize=auto;html=1;" parent="1" source="Ado9UdjXi3obDL_0Ov0g-58" target="Ado9UdjXi3obDL_0Ov0g-64" edge="1">
          <mxGeometry relative="1" as="geometry" />
        </mxCell>
        <mxCell id="Ado9UdjXi3obDL_0Ov0g-58" value="isReprint&lt;br&gt;?=1" style="rhombus;whiteSpace=wrap;html=1;rounded=0;" parent="1" vertex="1">
          <mxGeometry x="420" y="660" width="80" height="80" as="geometry" />
        </mxCell>
        <mxCell id="Ado9UdjXi3obDL_0Ov0g-61" value="返回打印信息" style="whiteSpace=wrap;html=1;rounded=0;" parent="1" vertex="1">
          <mxGeometry x="400" y="790" width="120" height="60" as="geometry" />
        </mxCell>
        <mxCell id="Ado9UdjXi3obDL_0Ov0g-66" style="edgeStyle=orthogonalEdgeStyle;rounded=0;orthogonalLoop=1;jettySize=auto;html=1;" parent="1" source="Ado9UdjXi3obDL_0Ov0g-64" target="Ado9UdjXi3obDL_0Ov0g-27" edge="1">
          <mxGeometry relative="1" as="geometry" />
        </mxCell>
        <mxCell id="Ado9UdjXi3obDL_0Ov0g-64" value="mars-api:&lt;br&gt;generatePass&lt;br&gt;生成板号palletId" style="whiteSpace=wrap;html=1;rounded=0;" parent="1" vertex="1">
          <mxGeometry x="540" y="670" width="120" height="60" as="geometry" />
        </mxCell>
      </root>
    </mxGraphModel>
  </diagram>
  <diagram id="wNm4r7ai6Nvl45tCrC1G" name="产生载具信息">
    <mxGraphModel dx="1662" dy="762" grid="1" gridSize="10" guides="1" tooltips="1" connect="1" arrows="1" fold="1" page="1" pageScale="1" pageWidth="827" pageHeight="1169" math="0" shadow="0">
      <root>
        <mxCell id="phUsHx9kTv-Bhc9XTdvx-0" />
        <mxCell id="phUsHx9kTv-Bhc9XTdvx-1" parent="phUsHx9kTv-Bhc9XTdvx-0" />
        <mxCell id="_iCgrsDvkMsk9MehZ4Ve-0" value="" style="edgeStyle=orthogonalEdgeStyle;rounded=0;orthogonalLoop=1;jettySize=auto;html=1;" parent="phUsHx9kTv-Bhc9XTdvx-1" source="_iCgrsDvkMsk9MehZ4Ve-1" target="_iCgrsDvkMsk9MehZ4Ve-2" edge="1">
          <mxGeometry relative="1" as="geometry" />
        </mxCell>
        <mxCell id="_iCgrsDvkMsk9MehZ4Ve-1" value="TaskController：&lt;br&gt;callbackTaskMessage()&lt;br&gt;任务域回调" style="rounded=0;whiteSpace=wrap;html=1;" parent="phUsHx9kTv-Bhc9XTdvx-1" vertex="1">
          <mxGeometry x="92.5" y="20" width="150" height="60" as="geometry" />
        </mxCell>
        <mxCell id="_iCgrsDvkMsk9MehZ4Ve-4" style="edgeStyle=orthogonalEdgeStyle;rounded=0;orthogonalLoop=1;jettySize=auto;html=1;" parent="phUsHx9kTv-Bhc9XTdvx-1" source="_iCgrsDvkMsk9MehZ4Ve-2" target="88c_ouUa-cILVtxzWqe0-0" edge="1">
          <mxGeometry relative="1" as="geometry" />
        </mxCell>
        <mxCell id="_iCgrsDvkMsk9MehZ4Ve-2" value="CallbackTaskServiceImpl：&lt;br&gt;processCallbackData()" style="rounded=0;whiteSpace=wrap;html=1;" parent="phUsHx9kTv-Bhc9XTdvx-1" vertex="1">
          <mxGeometry x="92.5" y="110" width="150" height="60" as="geometry" />
        </mxCell>
        <mxCell id="88c_ouUa-cILVtxzWqe0-1" style="edgeStyle=orthogonalEdgeStyle;rounded=0;orthogonalLoop=1;jettySize=auto;html=1;" parent="phUsHx9kTv-Bhc9XTdvx-1" source="88c_ouUa-cILVtxzWqe0-0" target="TFXz9VVwgtjMqqVSNFhG-3" edge="1">
          <mxGeometry relative="1" as="geometry">
            <mxPoint x="300" y="290" as="targetPoint" />
          </mxGeometry>
        </mxCell>
        <mxCell id="88c_ouUa-cILVtxzWqe0-2" value="N" style="edgeLabel;html=1;align=center;verticalAlign=middle;resizable=0;points=[];" parent="88c_ouUa-cILVtxzWqe0-1" vertex="1" connectable="0">
          <mxGeometry x="-0.6256" y="1" relative="1" as="geometry">
            <mxPoint as="offset" />
          </mxGeometry>
        </mxCell>
        <mxCell id="TFXz9VVwgtjMqqVSNFhG-2" value="" style="edgeStyle=orthogonalEdgeStyle;rounded=0;orthogonalLoop=1;jettySize=auto;html=1;" parent="phUsHx9kTv-Bhc9XTdvx-1" source="88c_ouUa-cILVtxzWqe0-0" target="TFXz9VVwgtjMqqVSNFhG-1" edge="1">
          <mxGeometry relative="1" as="geometry" />
        </mxCell>
        <mxCell id="88c_ouUa-cILVtxzWqe0-0" value="&lt;span&gt;gtbsBizType&lt;br&gt;?=load&lt;br&gt;&lt;/span&gt;" style="rhombus;whiteSpace=wrap;html=1;rounded=0;" parent="phUsHx9kTv-Bhc9XTdvx-1" vertex="1">
          <mxGeometry x="100" y="195" width="135" height="50" as="geometry" />
        </mxCell>
        <mxCell id="TFXz9VVwgtjMqqVSNFhG-1" value="回仓确认发车更新装车批数据：&lt;br&gt;载具：BoxInfo&lt;br&gt;装车批单：CarBatch" style="whiteSpace=wrap;html=1;rounded=0;align=left;fillColor=#ffe6cc;strokeColor=#d79b00;" parent="phUsHx9kTv-Bhc9XTdvx-1" vertex="1">
          <mxGeometry x="103.12" y="290" width="128.75" height="60" as="geometry" />
        </mxCell>
        <mxCell id="TFXz9VVwgtjMqqVSNFhG-6" value="" style="edgeStyle=orthogonalEdgeStyle;rounded=0;orthogonalLoop=1;jettySize=auto;html=1;" parent="phUsHx9kTv-Bhc9XTdvx-1" source="TFXz9VVwgtjMqqVSNFhG-3" target="TFXz9VVwgtjMqqVSNFhG-5" edge="1">
          <mxGeometry relative="1" as="geometry" />
        </mxCell>
        <mxCell id="TFXz9VVwgtjMqqVSNFhG-7" value="Y" style="edgeLabel;html=1;align=center;verticalAlign=middle;resizable=0;points=[];" parent="TFXz9VVwgtjMqqVSNFhG-6" vertex="1" connectable="0">
          <mxGeometry x="-0.3222" relative="1" as="geometry">
            <mxPoint as="offset" />
          </mxGeometry>
        </mxCell>
        <mxCell id="8ARd6Gqq6usgkQzHMvkr-11" style="edgeStyle=orthogonalEdgeStyle;rounded=0;orthogonalLoop=1;jettySize=auto;html=1;" parent="phUsHx9kTv-Bhc9XTdvx-1" source="TFXz9VVwgtjMqqVSNFhG-3" target="8ARd6Gqq6usgkQzHMvkr-0" edge="1">
          <mxGeometry relative="1" as="geometry" />
        </mxCell>
        <mxCell id="8ARd6Gqq6usgkQzHMvkr-12" value="N" style="edgeLabel;html=1;align=center;verticalAlign=middle;resizable=0;points=[];" parent="8ARd6Gqq6usgkQzHMvkr-11" vertex="1" connectable="0">
          <mxGeometry x="-0.805" y="1" relative="1" as="geometry">
            <mxPoint as="offset" />
          </mxGeometry>
        </mxCell>
        <mxCell id="TFXz9VVwgtjMqqVSNFhG-3" value="tbStatus?=0" style="rhombus;whiteSpace=wrap;html=1;rounded=0;" parent="phUsHx9kTv-Bhc9XTdvx-1" vertex="1">
          <mxGeometry x="260" y="290" width="135" height="50" as="geometry" />
        </mxCell>
        <mxCell id="TFXz9VVwgtjMqqVSNFhG-8" style="edgeStyle=orthogonalEdgeStyle;rounded=0;orthogonalLoop=1;jettySize=auto;html=1;" parent="phUsHx9kTv-Bhc9XTdvx-1" source="TFXz9VVwgtjMqqVSNFhG-5" target="8ARd6Gqq6usgkQzHMvkr-2" edge="1">
          <mxGeometry relative="1" as="geometry">
            <mxPoint x="327.9655172413793" y="555" as="targetPoint" />
          </mxGeometry>
        </mxCell>
        <mxCell id="TFXz9VVwgtjMqqVSNFhG-5" value="&lt;span&gt;tbBizType?=pallet&lt;br&gt;&lt;/span&gt;" style="rhombus;whiteSpace=wrap;html=1;rounded=0;" parent="phUsHx9kTv-Bhc9XTdvx-1" vertex="1">
          <mxGeometry x="260" y="420" width="135" height="50" as="geometry" />
        </mxCell>
        <mxCell id="oAu0bdoDZ9rP09fUBPhe-1" style="edgeStyle=orthogonalEdgeStyle;rounded=0;orthogonalLoop=1;jettySize=auto;html=1;entryX=0.5;entryY=0;entryDx=0;entryDy=0;" parent="phUsHx9kTv-Bhc9XTdvx-1" source="8ARd6Gqq6usgkQzHMvkr-0" target="oAu0bdoDZ9rP09fUBPhe-20" edge="1">
          <mxGeometry relative="1" as="geometry">
            <mxPoint x="950.03" y="440" as="targetPoint" />
          </mxGeometry>
        </mxCell>
        <mxCell id="8ARd6Gqq6usgkQzHMvkr-0" value="&lt;span&gt;tbBizType?=picking&lt;br&gt;&lt;/span&gt;" style="rhombus;whiteSpace=wrap;html=1;rounded=0;" parent="phUsHx9kTv-Bhc9XTdvx-1" vertex="1">
          <mxGeometry x="580" y="350" width="135" height="50" as="geometry" />
        </mxCell>
        <mxCell id="8ARd6Gqq6usgkQzHMvkr-7" value="CallbackTaskServiceImpl：&lt;br&gt;updateItemDailyInfo()" style="rounded=0;whiteSpace=wrap;html=1;" parent="phUsHx9kTv-Bhc9XTdvx-1" vertex="1">
          <mxGeometry x="252.5" y="810" width="150" height="60" as="geometry" />
        </mxCell>
        <mxCell id="8ARd6Gqq6usgkQzHMvkr-9" value="" style="group" parent="phUsHx9kTv-Bhc9XTdvx-1" vertex="1" connectable="0">
          <mxGeometry x="223.75" y="510" width="207.5" height="260" as="geometry" />
        </mxCell>
        <mxCell id="8ARd6Gqq6usgkQzHMvkr-2" value="" style="rounded=0;whiteSpace=wrap;html=1;" parent="8ARd6Gqq6usgkQzHMvkr-9" vertex="1">
          <mxGeometry width="207.5" height="260" as="geometry" />
        </mxCell>
        <mxCell id="8ARd6Gqq6usgkQzHMvkr-4" value="CallbackTaskServiceImpl：&lt;br&gt;saveBoxInfo()&lt;br&gt;状态为已完成" style="rounded=0;whiteSpace=wrap;html=1;" parent="8ARd6Gqq6usgkQzHMvkr-9" vertex="1">
          <mxGeometry x="28.75" y="20" width="150" height="60" as="geometry" />
        </mxCell>
        <mxCell id="RDQ9bGWP_hSpdxdXBLsO-48" style="edgeStyle=orthogonalEdgeStyle;rounded=0;orthogonalLoop=1;jettySize=auto;html=1;" parent="8ARd6Gqq6usgkQzHMvkr-9" source="8ARd6Gqq6usgkQzHMvkr-5" target="RDQ9bGWP_hSpdxdXBLsO-47" edge="1">
          <mxGeometry relative="1" as="geometry" />
        </mxCell>
        <mxCell id="8ARd6Gqq6usgkQzHMvkr-5" value="RevertBoxInfoMbService:&lt;br&gt;insert&lt;br&gt;生成载具" style="rounded=0;whiteSpace=wrap;html=1;fillColor=#ffe6cc;strokeColor=#d79b00;" parent="8ARd6Gqq6usgkQzHMvkr-9" vertex="1">
          <mxGeometry x="18.75" y="100" width="170" height="60" as="geometry" />
        </mxCell>
        <mxCell id="8ARd6Gqq6usgkQzHMvkr-3" style="edgeStyle=orthogonalEdgeStyle;rounded=0;orthogonalLoop=1;jettySize=auto;html=1;" parent="8ARd6Gqq6usgkQzHMvkr-9" source="8ARd6Gqq6usgkQzHMvkr-4" target="8ARd6Gqq6usgkQzHMvkr-5" edge="1">
          <mxGeometry x="-6.25" as="geometry" />
        </mxCell>
        <mxCell id="RDQ9bGWP_hSpdxdXBLsO-47" value="RevertBoxItemMbService:&lt;br&gt;batchInsert&lt;br&gt;生成明细" style="rounded=0;whiteSpace=wrap;html=1;fillColor=#ffe6cc;strokeColor=#d79b00;" parent="8ARd6Gqq6usgkQzHMvkr-9" vertex="1">
          <mxGeometry x="18.75" y="180" width="170" height="60" as="geometry" />
        </mxCell>
        <mxCell id="8ARd6Gqq6usgkQzHMvkr-10" style="edgeStyle=orthogonalEdgeStyle;rounded=0;orthogonalLoop=1;jettySize=auto;html=1;" parent="phUsHx9kTv-Bhc9XTdvx-1" source="8ARd6Gqq6usgkQzHMvkr-2" target="8ARd6Gqq6usgkQzHMvkr-7" edge="1">
          <mxGeometry relative="1" as="geometry" />
        </mxCell>
        <mxCell id="oAu0bdoDZ9rP09fUBPhe-10" style="edgeStyle=orthogonalEdgeStyle;rounded=0;orthogonalLoop=1;jettySize=auto;html=1;" parent="phUsHx9kTv-Bhc9XTdvx-1" source="oAu0bdoDZ9rP09fUBPhe-20" target="oAu0bdoDZ9rP09fUBPhe-16" edge="1">
          <mxGeometry relative="1" as="geometry">
            <mxPoint x="557.5127586206897" y="644.5" as="sourcePoint" />
          </mxGeometry>
        </mxCell>
        <mxCell id="oAu0bdoDZ9rP09fUBPhe-13" value="" style="edgeStyle=orthogonalEdgeStyle;rounded=0;orthogonalLoop=1;jettySize=auto;html=1;exitX=0.5;exitY=1;exitDx=0;exitDy=0;" parent="phUsHx9kTv-Bhc9XTdvx-1" source="oAu0bdoDZ9rP09fUBPhe-16" target="oAu0bdoDZ9rP09fUBPhe-17" edge="1">
          <mxGeometry relative="1" as="geometry">
            <mxPoint x="680.05" y="940" as="targetPoint" />
          </mxGeometry>
        </mxCell>
        <mxCell id="oAu0bdoDZ9rP09fUBPhe-16" value="CallbackTaskServiceImpl：&lt;br&gt;updateItemDailyInfo()" style="rounded=0;whiteSpace=wrap;html=1;" parent="phUsHx9kTv-Bhc9XTdvx-1" vertex="1">
          <mxGeometry x="572.5" y="740" width="150" height="60" as="geometry" />
        </mxCell>
        <mxCell id="oAu0bdoDZ9rP09fUBPhe-19" style="edgeStyle=orthogonalEdgeStyle;rounded=0;orthogonalLoop=1;jettySize=auto;html=1;" parent="phUsHx9kTv-Bhc9XTdvx-1" source="oAu0bdoDZ9rP09fUBPhe-17" target="oAu0bdoDZ9rP09fUBPhe-18" edge="1">
          <mxGeometry relative="1" as="geometry" />
        </mxCell>
        <mxCell id="oAu0bdoDZ9rP09fUBPhe-17" value="判断是否需要将BatchInfo、DailyInfo状态改为完成（1），并执行操作" style="shape=process;whiteSpace=wrap;html=1;backgroundOutline=1;" parent="phUsHx9kTv-Bhc9XTdvx-1" vertex="1">
          <mxGeometry x="571.23" y="830" width="152.53" height="60" as="geometry" />
        </mxCell>
        <mxCell id="oAu0bdoDZ9rP09fUBPhe-46" value="" style="edgeStyle=orthogonalEdgeStyle;rounded=0;orthogonalLoop=1;jettySize=auto;html=1;" parent="phUsHx9kTv-Bhc9XTdvx-1" source="oAu0bdoDZ9rP09fUBPhe-18" target="oAu0bdoDZ9rP09fUBPhe-47" edge="1">
          <mxGeometry relative="1" as="geometry" />
        </mxCell>
        <mxCell id="oAu0bdoDZ9rP09fUBPhe-18" value="&lt;span&gt;gtbsBizType?=rs||&lt;br&gt;&lt;/span&gt;gtbsBizType?=ars&lt;span&gt;&lt;br&gt;&lt;/span&gt;" style="rhombus;whiteSpace=wrap;html=1;rounded=0;" parent="phUsHx9kTv-Bhc9XTdvx-1" vertex="1">
          <mxGeometry x="580" y="930" width="135" height="50" as="geometry" />
        </mxCell>
        <mxCell id="oAu0bdoDZ9rP09fUBPhe-47" value="CallbackTaskServiceImpl：&lt;br&gt;generateLoadingInfo()&lt;br&gt;生成装车单" style="rounded=0;whiteSpace=wrap;html=1;" parent="phUsHx9kTv-Bhc9XTdvx-1" vertex="1">
          <mxGeometry x="572.5" y="1030" width="150" height="60" as="geometry" />
        </mxCell>
        <mxCell id="CNZxNclpf5kZ0QZOU9ph-2" value="" style="group;fillColor=#fff2cc;strokeColor=#d6b656;" parent="phUsHx9kTv-Bhc9XTdvx-1" vertex="1" connectable="0">
          <mxGeometry x="470" y="430" width="355" height="290" as="geometry" />
        </mxCell>
        <mxCell id="oAu0bdoDZ9rP09fUBPhe-20" value="" style="rounded=0;whiteSpace=wrap;html=1;" parent="CNZxNclpf5kZ0QZOU9ph-2" vertex="1">
          <mxGeometry width="355" height="290" as="geometry" />
        </mxCell>
        <mxCell id="oAu0bdoDZ9rP09fUBPhe-41" value="&lt;span&gt;gtbsBizType?=ars&lt;br&gt;是主动发退&lt;br&gt;&lt;/span&gt;" style="rhombus;whiteSpace=wrap;html=1;rounded=0;" parent="CNZxNclpf5kZ0QZOU9ph-2" vertex="1">
          <mxGeometry x="120" y="10" width="135" height="50" as="geometry" />
        </mxCell>
        <mxCell id="oAu0bdoDZ9rP09fUBPhe-42" value="CallbackTaskServiceImpl：&lt;br&gt;saveBoxInfo()&lt;br&gt;状态为已完成" style="rounded=0;whiteSpace=wrap;html=1;" parent="CNZxNclpf5kZ0QZOU9ph-2" vertex="1">
          <mxGeometry x="23.75" y="60" width="150" height="60" as="geometry" />
        </mxCell>
        <mxCell id="oAu0bdoDZ9rP09fUBPhe-37" style="edgeStyle=orthogonalEdgeStyle;rounded=0;orthogonalLoop=1;jettySize=auto;html=1;exitX=0;exitY=0.5;exitDx=0;exitDy=0;" parent="CNZxNclpf5kZ0QZOU9ph-2" source="oAu0bdoDZ9rP09fUBPhe-41" target="oAu0bdoDZ9rP09fUBPhe-42" edge="1">
          <mxGeometry x="20" y="55" as="geometry" />
        </mxCell>
        <mxCell id="oAu0bdoDZ9rP09fUBPhe-38" value="Y" style="edgeLabel;html=1;align=center;verticalAlign=middle;resizable=0;points=[];" parent="oAu0bdoDZ9rP09fUBPhe-37" vertex="1" connectable="0">
          <mxGeometry x="-0.7233" relative="1" as="geometry">
            <mxPoint as="offset" />
          </mxGeometry>
        </mxCell>
        <mxCell id="oAu0bdoDZ9rP09fUBPhe-43" value="CallbackTaskServiceImpl：&lt;br&gt;updateBoxInfo()&lt;br&gt;状态为已完成" style="rounded=0;whiteSpace=wrap;html=1;fillColor=#f8cecc;strokeColor=#b85450;" parent="CNZxNclpf5kZ0QZOU9ph-2" vertex="1">
          <mxGeometry x="201.25" y="170" width="150" height="60" as="geometry" />
        </mxCell>
        <mxCell id="oAu0bdoDZ9rP09fUBPhe-39" value="" style="edgeStyle=orthogonalEdgeStyle;rounded=0;orthogonalLoop=1;jettySize=auto;html=1;exitX=1;exitY=0.5;exitDx=0;exitDy=0;" parent="CNZxNclpf5kZ0QZOU9ph-2" source="oAu0bdoDZ9rP09fUBPhe-41" target="oAu0bdoDZ9rP09fUBPhe-43" edge="1">
          <mxGeometry x="20" y="55" as="geometry">
            <mxPoint x="253.75" y="110" as="targetPoint" />
          </mxGeometry>
        </mxCell>
        <mxCell id="oAu0bdoDZ9rP09fUBPhe-40" value="N" style="edgeLabel;html=1;align=center;verticalAlign=middle;resizable=0;points=[];" parent="oAu0bdoDZ9rP09fUBPhe-39" vertex="1" connectable="0">
          <mxGeometry x="-0.7812" relative="1" as="geometry">
            <mxPoint as="offset" />
          </mxGeometry>
        </mxCell>
        <mxCell id="RDQ9bGWP_hSpdxdXBLsO-50" style="edgeStyle=orthogonalEdgeStyle;rounded=0;orthogonalLoop=1;jettySize=auto;html=1;" parent="CNZxNclpf5kZ0QZOU9ph-2" source="CNZxNclpf5kZ0QZOU9ph-0" target="RDQ9bGWP_hSpdxdXBLsO-49" edge="1">
          <mxGeometry relative="1" as="geometry" />
        </mxCell>
        <mxCell id="CNZxNclpf5kZ0QZOU9ph-0" value="RevertBoxInfoMbService:&lt;br&gt;insert&lt;br&gt;生成载具" style="rounded=0;whiteSpace=wrap;html=1;fillColor=#ffe6cc;strokeColor=#d79b00;" parent="CNZxNclpf5kZ0QZOU9ph-2" vertex="1">
          <mxGeometry x="13.75" y="140" width="170" height="60" as="geometry" />
        </mxCell>
        <mxCell id="CNZxNclpf5kZ0QZOU9ph-1" style="edgeStyle=orthogonalEdgeStyle;rounded=0;orthogonalLoop=1;jettySize=auto;html=1;" parent="CNZxNclpf5kZ0QZOU9ph-2" source="oAu0bdoDZ9rP09fUBPhe-42" target="CNZxNclpf5kZ0QZOU9ph-0" edge="1">
          <mxGeometry x="20" y="55" as="geometry" />
        </mxCell>
        <mxCell id="RDQ9bGWP_hSpdxdXBLsO-49" value="RevertBoxInfoMbService:&lt;br&gt;insert&lt;br&gt;生成载具" style="rounded=0;whiteSpace=wrap;html=1;fillColor=#ffe6cc;strokeColor=#d79b00;" parent="CNZxNclpf5kZ0QZOU9ph-2" vertex="1">
          <mxGeometry x="13.75" y="220" width="170" height="60" as="geometry" />
        </mxCell>
        <mxCell id="RDQ9bGWP_hSpdxdXBLsO-0" style="edgeStyle=orthogonalEdgeStyle;rounded=0;orthogonalLoop=1;jettySize=auto;html=1;" parent="phUsHx9kTv-Bhc9XTdvx-1" source="RDQ9bGWP_hSpdxdXBLsO-1" target="RDQ9bGWP_hSpdxdXBLsO-3" edge="1">
          <mxGeometry relative="1" as="geometry" />
        </mxCell>
        <mxCell id="RDQ9bGWP_hSpdxdXBLsO-1" value="RevertController：&lt;br&gt;selectItemsList()&lt;br&gt;选取品项" style="rounded=0;whiteSpace=wrap;html=1;" parent="phUsHx9kTv-Bhc9XTdvx-1" vertex="1">
          <mxGeometry x="850" y="20" width="120" height="60" as="geometry" />
        </mxCell>
        <mxCell id="RDQ9bGWP_hSpdxdXBLsO-2" value="" style="edgeStyle=orthogonalEdgeStyle;rounded=0;orthogonalLoop=1;jettySize=auto;html=1;" parent="phUsHx9kTv-Bhc9XTdvx-1" source="RDQ9bGWP_hSpdxdXBLsO-3" target="RDQ9bGWP_hSpdxdXBLsO-5" edge="1">
          <mxGeometry relative="1" as="geometry" />
        </mxCell>
        <mxCell id="RDQ9bGWP_hSpdxdXBLsO-3" value="RevertServiceImpl：&lt;br&gt;selectItemsList()" style="rounded=0;whiteSpace=wrap;html=1;" parent="phUsHx9kTv-Bhc9XTdvx-1" vertex="1">
          <mxGeometry x="1050" y="20" width="120" height="60" as="geometry" />
        </mxCell>
        <mxCell id="RDQ9bGWP_hSpdxdXBLsO-4" value="" style="edgeStyle=orthogonalEdgeStyle;rounded=0;orthogonalLoop=1;jettySize=auto;html=1;" parent="phUsHx9kTv-Bhc9XTdvx-1" source="RDQ9bGWP_hSpdxdXBLsO-5" target="RDQ9bGWP_hSpdxdXBLsO-7" edge="1">
          <mxGeometry relative="1" as="geometry" />
        </mxCell>
        <mxCell id="RDQ9bGWP_hSpdxdXBLsO-5" value="根据货号查询RevertItemsDaily表" style="rounded=0;whiteSpace=wrap;html=1;" parent="phUsHx9kTv-Bhc9XTdvx-1" vertex="1">
          <mxGeometry x="1250" y="20" width="120" height="60" as="geometry" />
        </mxCell>
        <mxCell id="RDQ9bGWP_hSpdxdXBLsO-6" value="" style="edgeStyle=orthogonalEdgeStyle;rounded=0;orthogonalLoop=1;jettySize=auto;html=1;" parent="phUsHx9kTv-Bhc9XTdvx-1" source="RDQ9bGWP_hSpdxdXBLsO-7" target="RDQ9bGWP_hSpdxdXBLsO-20" edge="1">
          <mxGeometry relative="1" as="geometry" />
        </mxCell>
        <mxCell id="RDQ9bGWP_hSpdxdXBLsO-7" value="RevertServiceImpl：&lt;br&gt;saveTaskInfo()" style="rounded=0;whiteSpace=wrap;html=1;" parent="phUsHx9kTv-Bhc9XTdvx-1" vertex="1">
          <mxGeometry x="1480" y="80" width="120" height="60" as="geometry" />
        </mxCell>
        <mxCell id="RDQ9bGWP_hSpdxdXBLsO-8" value="" style="edgeStyle=orthogonalEdgeStyle;rounded=0;orthogonalLoop=1;jettySize=auto;html=1;" parent="phUsHx9kTv-Bhc9XTdvx-1" source="RDQ9bGWP_hSpdxdXBLsO-9" target="RDQ9bGWP_hSpdxdXBLsO-11" edge="1">
          <mxGeometry relative="1" as="geometry" />
        </mxCell>
        <mxCell id="RDQ9bGWP_hSpdxdXBLsO-9" value="RevertController：&lt;br&gt;dispatchChannel()&lt;br&gt;店间调货" style="rounded=0;whiteSpace=wrap;html=1;" parent="phUsHx9kTv-Bhc9XTdvx-1" vertex="1">
          <mxGeometry x="850" y="140" width="120" height="60" as="geometry" />
        </mxCell>
        <mxCell id="RDQ9bGWP_hSpdxdXBLsO-10" style="edgeStyle=orthogonalEdgeStyle;rounded=0;orthogonalLoop=1;jettySize=auto;html=1;" parent="phUsHx9kTv-Bhc9XTdvx-1" source="RDQ9bGWP_hSpdxdXBLsO-11" target="RDQ9bGWP_hSpdxdXBLsO-13" edge="1">
          <mxGeometry relative="1" as="geometry" />
        </mxCell>
        <mxCell id="RDQ9bGWP_hSpdxdXBLsO-11" value="RevertServiceImpl：&lt;br&gt;dispatchChannel()" style="rounded=0;whiteSpace=wrap;html=1;" parent="phUsHx9kTv-Bhc9XTdvx-1" vertex="1">
          <mxGeometry x="1054" y="140" width="120" height="60" as="geometry" />
        </mxCell>
        <mxCell id="RDQ9bGWP_hSpdxdXBLsO-12" style="edgeStyle=orthogonalEdgeStyle;rounded=0;orthogonalLoop=1;jettySize=auto;html=1;" parent="phUsHx9kTv-Bhc9XTdvx-1" source="RDQ9bGWP_hSpdxdXBLsO-13" target="RDQ9bGWP_hSpdxdXBLsO-7" edge="1">
          <mxGeometry relative="1" as="geometry" />
        </mxCell>
        <mxCell id="RDQ9bGWP_hSpdxdXBLsO-13" value="根据上游单号查询RevertItemsDaily表" style="rounded=0;whiteSpace=wrap;html=1;" parent="phUsHx9kTv-Bhc9XTdvx-1" vertex="1">
          <mxGeometry x="1250" y="140" width="120" height="60" as="geometry" />
        </mxCell>
        <mxCell id="RDQ9bGWP_hSpdxdXBLsO-14" style="edgeStyle=orthogonalEdgeStyle;rounded=0;orthogonalLoop=1;jettySize=auto;html=1;" parent="phUsHx9kTv-Bhc9XTdvx-1" source="RDQ9bGWP_hSpdxdXBLsO-18" target="RDQ9bGWP_hSpdxdXBLsO-22" edge="1">
          <mxGeometry relative="1" as="geometry" />
        </mxCell>
        <mxCell id="RDQ9bGWP_hSpdxdXBLsO-15" value="Y" style="edgeLabel;html=1;align=center;verticalAlign=middle;resizable=0;points=[];" parent="RDQ9bGWP_hSpdxdXBLsO-14" vertex="1" connectable="0">
          <mxGeometry x="-0.4198" relative="1" as="geometry">
            <mxPoint as="offset" />
          </mxGeometry>
        </mxCell>
        <mxCell id="RDQ9bGWP_hSpdxdXBLsO-16" value="" style="edgeStyle=orthogonalEdgeStyle;rounded=0;orthogonalLoop=1;jettySize=auto;html=1;" parent="phUsHx9kTv-Bhc9XTdvx-1" source="RDQ9bGWP_hSpdxdXBLsO-18" target="RDQ9bGWP_hSpdxdXBLsO-34" edge="1">
          <mxGeometry relative="1" as="geometry">
            <mxPoint x="1380" y="320" as="targetPoint" />
          </mxGeometry>
        </mxCell>
        <mxCell id="RDQ9bGWP_hSpdxdXBLsO-17" value="N" style="edgeLabel;html=1;align=center;verticalAlign=middle;resizable=0;points=[];" parent="RDQ9bGWP_hSpdxdXBLsO-16" vertex="1" connectable="0">
          <mxGeometry x="-0.5661" relative="1" as="geometry">
            <mxPoint as="offset" />
          </mxGeometry>
        </mxCell>
        <mxCell id="RDQ9bGWP_hSpdxdXBLsO-18" value="是否生成任务" style="rhombus;whiteSpace=wrap;html=1;rounded=0;" parent="phUsHx9kTv-Bhc9XTdvx-1" vertex="1">
          <mxGeometry x="1500" y="280" width="80" height="80" as="geometry" />
        </mxCell>
        <mxCell id="RDQ9bGWP_hSpdxdXBLsO-19" style="edgeStyle=orthogonalEdgeStyle;rounded=0;orthogonalLoop=1;jettySize=auto;html=1;" parent="phUsHx9kTv-Bhc9XTdvx-1" source="RDQ9bGWP_hSpdxdXBLsO-20" target="RDQ9bGWP_hSpdxdXBLsO-18" edge="1">
          <mxGeometry relative="1" as="geometry" />
        </mxCell>
        <mxCell id="RDQ9bGWP_hSpdxdXBLsO-20" value="mars-api:&lt;br&gt;generatePickingTb&lt;br&gt;生成任务数据" style="rounded=0;whiteSpace=wrap;html=1;" parent="phUsHx9kTv-Bhc9XTdvx-1" vertex="1">
          <mxGeometry x="1480" y="180" width="120" height="60" as="geometry" />
        </mxCell>
        <mxCell id="RDQ9bGWP_hSpdxdXBLsO-21" value="" style="edgeStyle=orthogonalEdgeStyle;rounded=0;orthogonalLoop=1;jettySize=auto;html=1;" parent="phUsHx9kTv-Bhc9XTdvx-1" source="RDQ9bGWP_hSpdxdXBLsO-22" target="RDQ9bGWP_hSpdxdXBLsO-27" edge="1">
          <mxGeometry relative="1" as="geometry" />
        </mxCell>
        <mxCell id="RDQ9bGWP_hSpdxdXBLsO-22" value="RevertServiceImpl：&lt;br&gt;saveBatchInfo()" style="rounded=0;whiteSpace=wrap;html=1;" parent="phUsHx9kTv-Bhc9XTdvx-1" vertex="1">
          <mxGeometry x="1480" y="400" width="120" height="60" as="geometry" />
        </mxCell>
        <mxCell id="RDQ9bGWP_hSpdxdXBLsO-23" value="" style="edgeStyle=orthogonalEdgeStyle;rounded=0;orthogonalLoop=1;jettySize=auto;html=1;" parent="phUsHx9kTv-Bhc9XTdvx-1" source="RDQ9bGWP_hSpdxdXBLsO-27" target="RDQ9bGWP_hSpdxdXBLsO-29" edge="1">
          <mxGeometry relative="1" as="geometry" />
        </mxCell>
        <mxCell id="RDQ9bGWP_hSpdxdXBLsO-24" value="Y" style="edgeLabel;html=1;align=center;verticalAlign=middle;resizable=0;points=[];" parent="RDQ9bGWP_hSpdxdXBLsO-23" vertex="1" connectable="0">
          <mxGeometry x="-0.2711" relative="1" as="geometry">
            <mxPoint as="offset" />
          </mxGeometry>
        </mxCell>
        <mxCell id="RDQ9bGWP_hSpdxdXBLsO-25" value="" style="edgeStyle=orthogonalEdgeStyle;rounded=0;orthogonalLoop=1;jettySize=auto;html=1;" parent="phUsHx9kTv-Bhc9XTdvx-1" source="RDQ9bGWP_hSpdxdXBLsO-27" target="RDQ9bGWP_hSpdxdXBLsO-31" edge="1">
          <mxGeometry relative="1" as="geometry">
            <mxPoint x="1687.5" y="555" as="targetPoint" />
          </mxGeometry>
        </mxCell>
        <mxCell id="RDQ9bGWP_hSpdxdXBLsO-26" value="N" style="edgeLabel;html=1;align=center;verticalAlign=middle;resizable=0;points=[];" parent="RDQ9bGWP_hSpdxdXBLsO-25" vertex="1" connectable="0">
          <mxGeometry x="-0.1569" relative="1" as="geometry">
            <mxPoint as="offset" />
          </mxGeometry>
        </mxCell>
        <mxCell id="RDQ9bGWP_hSpdxdXBLsO-27" value="&lt;span&gt;gtbsBizType&lt;br&gt;?=load&lt;br&gt;&lt;/span&gt;" style="rhombus;whiteSpace=wrap;html=1;rounded=0;" parent="phUsHx9kTv-Bhc9XTdvx-1" vertex="1">
          <mxGeometry x="1472.5" y="530" width="135" height="50" as="geometry" />
        </mxCell>
        <mxCell id="RDQ9bGWP_hSpdxdXBLsO-28" style="edgeStyle=orthogonalEdgeStyle;rounded=0;orthogonalLoop=1;jettySize=auto;html=1;" parent="phUsHx9kTv-Bhc9XTdvx-1" source="RDQ9bGWP_hSpdxdXBLsO-29" target="RDQ9bGWP_hSpdxdXBLsO-51" edge="1">
          <mxGeometry relative="1" as="geometry" />
        </mxCell>
        <mxCell id="RDQ9bGWP_hSpdxdXBLsO-29" value="RevertCarBatchInfoMbService:&lt;br&gt;insert" style="whiteSpace=wrap;html=1;rounded=0;" parent="phUsHx9kTv-Bhc9XTdvx-1" vertex="1">
          <mxGeometry x="1445" y="655" width="190" height="60" as="geometry" />
        </mxCell>
        <mxCell id="RDQ9bGWP_hSpdxdXBLsO-30" value="" style="edgeStyle=orthogonalEdgeStyle;rounded=0;orthogonalLoop=1;jettySize=auto;html=1;" parent="phUsHx9kTv-Bhc9XTdvx-1" source="RDQ9bGWP_hSpdxdXBLsO-31" target="RDQ9bGWP_hSpdxdXBLsO-51" edge="1">
          <mxGeometry relative="1" as="geometry" />
        </mxCell>
        <mxCell id="RDQ9bGWP_hSpdxdXBLsO-31" value="RevertBatchInfoMbService:&lt;br&gt;insert&lt;br&gt;生成拣货批单" style="rounded=0;whiteSpace=wrap;html=1;" parent="phUsHx9kTv-Bhc9XTdvx-1" vertex="1">
          <mxGeometry x="1670" y="655" width="170" height="60" as="geometry" />
        </mxCell>
        <mxCell id="RDQ9bGWP_hSpdxdXBLsO-33" style="edgeStyle=orthogonalEdgeStyle;rounded=0;orthogonalLoop=1;jettySize=auto;html=1;" parent="phUsHx9kTv-Bhc9XTdvx-1" source="RDQ9bGWP_hSpdxdXBLsO-34" target="RDQ9bGWP_hSpdxdXBLsO-35" edge="1">
          <mxGeometry relative="1" as="geometry" />
        </mxCell>
        <mxCell id="RDQ9bGWP_hSpdxdXBLsO-34" value="RevertBatchInfoMbService:&lt;br&gt;insert&lt;br&gt;生成拣货批单" style="rounded=0;whiteSpace=wrap;html=1;" parent="phUsHx9kTv-Bhc9XTdvx-1" vertex="1">
          <mxGeometry x="1670" y="290" width="170" height="60" as="geometry" />
        </mxCell>
        <mxCell id="RDQ9bGWP_hSpdxdXBLsO-35" value="&lt;div&gt;向外报告异常信息：&lt;/div&gt;&lt;div&gt;允退量不满足OP，生成退货任务失败&lt;/div&gt;" style="rounded=0;whiteSpace=wrap;html=1;" parent="phUsHx9kTv-Bhc9XTdvx-1" vertex="1">
          <mxGeometry x="1900" y="290" width="120" height="60" as="geometry" />
        </mxCell>
        <mxCell id="RDQ9bGWP_hSpdxdXBLsO-36" style="edgeStyle=orthogonalEdgeStyle;rounded=0;orthogonalLoop=1;jettySize=auto;html=1;" parent="phUsHx9kTv-Bhc9XTdvx-1" source="RDQ9bGWP_hSpdxdXBLsO-37" target="RDQ9bGWP_hSpdxdXBLsO-39" edge="1">
          <mxGeometry relative="1" as="geometry" />
        </mxCell>
        <mxCell id="RDQ9bGWP_hSpdxdXBLsO-37" value="RevertController：&lt;br&gt;palletBoxConfirm()&lt;br&gt;退货开板" style="rounded=0;whiteSpace=wrap;html=1;" parent="phUsHx9kTv-Bhc9XTdvx-1" vertex="1">
          <mxGeometry x="850" y="255" width="120" height="60" as="geometry" />
        </mxCell>
        <mxCell id="RDQ9bGWP_hSpdxdXBLsO-38" value="" style="edgeStyle=orthogonalEdgeStyle;rounded=0;orthogonalLoop=1;jettySize=auto;html=1;" parent="phUsHx9kTv-Bhc9XTdvx-1" source="RDQ9bGWP_hSpdxdXBLsO-39" target="RDQ9bGWP_hSpdxdXBLsO-43" edge="1">
          <mxGeometry relative="1" as="geometry" />
        </mxCell>
        <mxCell id="RDQ9bGWP_hSpdxdXBLsO-39" value="RevertServiceImpl：&lt;br&gt;palletBoxConfirm()" style="rounded=0;whiteSpace=wrap;html=1;" parent="phUsHx9kTv-Bhc9XTdvx-1" vertex="1">
          <mxGeometry x="1150" y="255" width="120" height="60" as="geometry" />
        </mxCell>
        <mxCell id="RDQ9bGWP_hSpdxdXBLsO-40" value="" style="edgeStyle=orthogonalEdgeStyle;rounded=0;orthogonalLoop=1;jettySize=auto;html=1;" parent="phUsHx9kTv-Bhc9XTdvx-1" source="RDQ9bGWP_hSpdxdXBLsO-43" target="RDQ9bGWP_hSpdxdXBLsO-44" edge="1">
          <mxGeometry relative="1" as="geometry" />
        </mxCell>
        <mxCell id="RDQ9bGWP_hSpdxdXBLsO-41" value="N" style="edgeLabel;html=1;align=center;verticalAlign=middle;resizable=0;points=[];" parent="RDQ9bGWP_hSpdxdXBLsO-40" vertex="1" connectable="0">
          <mxGeometry x="-0.5509" relative="1" as="geometry">
            <mxPoint as="offset" />
          </mxGeometry>
        </mxCell>
        <mxCell id="RDQ9bGWP_hSpdxdXBLsO-42" value="" style="edgeStyle=orthogonalEdgeStyle;rounded=0;orthogonalLoop=1;jettySize=auto;html=1;" parent="phUsHx9kTv-Bhc9XTdvx-1" source="RDQ9bGWP_hSpdxdXBLsO-43" target="RDQ9bGWP_hSpdxdXBLsO-46" edge="1">
          <mxGeometry relative="1" as="geometry" />
        </mxCell>
        <mxCell id="RDQ9bGWP_hSpdxdXBLsO-43" value="isReprint&lt;br&gt;?=1" style="rhombus;whiteSpace=wrap;html=1;rounded=0;" parent="phUsHx9kTv-Bhc9XTdvx-1" vertex="1">
          <mxGeometry x="1170" y="390" width="80" height="80" as="geometry" />
        </mxCell>
        <mxCell id="RDQ9bGWP_hSpdxdXBLsO-44" value="返回打印信息" style="whiteSpace=wrap;html=1;rounded=0;" parent="phUsHx9kTv-Bhc9XTdvx-1" vertex="1">
          <mxGeometry x="1150" y="520" width="120" height="60" as="geometry" />
        </mxCell>
        <mxCell id="RDQ9bGWP_hSpdxdXBLsO-45" style="edgeStyle=orthogonalEdgeStyle;rounded=0;orthogonalLoop=1;jettySize=auto;html=1;" parent="phUsHx9kTv-Bhc9XTdvx-1" source="RDQ9bGWP_hSpdxdXBLsO-46" target="RDQ9bGWP_hSpdxdXBLsO-22" edge="1">
          <mxGeometry relative="1" as="geometry" />
        </mxCell>
        <mxCell id="RDQ9bGWP_hSpdxdXBLsO-46" value="mars-api:&lt;br&gt;generatePass&lt;br&gt;生成板号palletId" style="whiteSpace=wrap;html=1;rounded=0;" parent="phUsHx9kTv-Bhc9XTdvx-1" vertex="1">
          <mxGeometry x="1290" y="400" width="120" height="60" as="geometry" />
        </mxCell>
        <mxCell id="RDQ9bGWP_hSpdxdXBLsO-53" style="edgeStyle=orthogonalEdgeStyle;rounded=0;orthogonalLoop=1;jettySize=auto;html=1;" parent="phUsHx9kTv-Bhc9XTdvx-1" source="RDQ9bGWP_hSpdxdXBLsO-51" target="RDQ9bGWP_hSpdxdXBLsO-52" edge="1">
          <mxGeometry relative="1" as="geometry" />
        </mxCell>
        <mxCell id="RDQ9bGWP_hSpdxdXBLsO-51" value="RevertBoxInfoMbService:&lt;br&gt;insert&lt;br&gt;生成载具" style="rounded=0;whiteSpace=wrap;html=1;fillColor=#ffe6cc;strokeColor=#d79b00;" parent="phUsHx9kTv-Bhc9XTdvx-1" vertex="1">
          <mxGeometry x="1560" y="770" width="170" height="60" as="geometry" />
        </mxCell>
        <mxCell id="RDQ9bGWP_hSpdxdXBLsO-52" value="RevertBoxInfoMbService:&lt;br&gt;insert&lt;br&gt;生成载具" style="rounded=0;whiteSpace=wrap;html=1;fillColor=#ffe6cc;strokeColor=#d79b00;" parent="phUsHx9kTv-Bhc9XTdvx-1" vertex="1">
          <mxGeometry x="1560" y="860" width="170" height="60" as="geometry" />
        </mxCell>
      </root>
    </mxGraphModel>
  </diagram>
  <diagram id="HU5G8D8xxO9DrTdHHMrX" name="好品回仓、回仓退厂保存box">
    <mxGraphModel dx="1662" dy="762" grid="1" gridSize="10" guides="1" tooltips="1" connect="1" arrows="1" fold="1" page="1" pageScale="1" pageWidth="827" pageHeight="1169" math="0" shadow="0">
      <root>
        <mxCell id="n1AVyUTCbMts56fec_Y9-0" />
        <mxCell id="n1AVyUTCbMts56fec_Y9-1" parent="n1AVyUTCbMts56fec_Y9-0" />
        <mxCell id="d8wcmGQswvMuVtuhtJbX-2" style="edgeStyle=orthogonalEdgeStyle;rounded=0;orthogonalLoop=1;jettySize=auto;html=1;exitX=0.5;exitY=1;exitDx=0;exitDy=0;entryX=0;entryY=0.5;entryDx=0;entryDy=0;" parent="n1AVyUTCbMts56fec_Y9-1" source="d8wcmGQswvMuVtuhtJbX-12" target="d8wcmGQswvMuVtuhtJbX-1" edge="1">
          <mxGeometry relative="1" as="geometry" />
        </mxCell>
        <mxCell id="d8wcmGQswvMuVtuhtJbX-3" value="rtw1好品回仓" style="edgeLabel;html=1;align=center;verticalAlign=middle;resizable=0;points=[];" parent="d8wcmGQswvMuVtuhtJbX-2" vertex="1" connectable="0">
          <mxGeometry x="-0.24" y="-1" relative="1" as="geometry">
            <mxPoint as="offset" />
          </mxGeometry>
        </mxCell>
        <mxCell id="d8wcmGQswvMuVtuhtJbX-5" value="" style="edgeStyle=orthogonalEdgeStyle;rounded=0;orthogonalLoop=1;jettySize=auto;html=1;exitX=0;exitY=0.5;exitDx=0;exitDy=0;" parent="n1AVyUTCbMts56fec_Y9-1" source="d8wcmGQswvMuVtuhtJbX-12" target="d8wcmGQswvMuVtuhtJbX-4" edge="1">
          <mxGeometry relative="1" as="geometry" />
        </mxCell>
        <mxCell id="d8wcmGQswvMuVtuhtJbX-6" value="rts回仓退厂" style="edgeLabel;html=1;align=center;verticalAlign=middle;resizable=0;points=[];" parent="d8wcmGQswvMuVtuhtJbX-5" vertex="1" connectable="0">
          <mxGeometry x="-0.3238" y="-1" relative="1" as="geometry">
            <mxPoint as="offset" />
          </mxGeometry>
        </mxCell>
        <mxCell id="d8wcmGQswvMuVtuhtJbX-1" value="saveBoxInfo" style="rounded=0;whiteSpace=wrap;html=1;" parent="n1AVyUTCbMts56fec_Y9-1" vertex="1">
          <mxGeometry x="390" y="390" width="120" height="60" as="geometry" />
        </mxCell>
        <mxCell id="d8wcmGQswvMuVtuhtJbX-4" value="do nothing !!" style="whiteSpace=wrap;html=1;" parent="n1AVyUTCbMts56fec_Y9-1" vertex="1">
          <mxGeometry x="150" y="390" width="120" height="60" as="geometry" />
        </mxCell>
        <mxCell id="d8wcmGQswvMuVtuhtJbX-7" value="" style="edgeStyle=orthogonalEdgeStyle;rounded=0;orthogonalLoop=1;jettySize=auto;html=1;entryX=0.5;entryY=0;entryDx=0;entryDy=0;exitX=0;exitY=0.5;exitDx=0;exitDy=0;" parent="n1AVyUTCbMts56fec_Y9-1" source="d8wcmGQswvMuVtuhtJbX-11" target="d8wcmGQswvMuVtuhtJbX-12" edge="1">
          <mxGeometry relative="1" as="geometry">
            <mxPoint x="300" y="140" as="sourcePoint" />
            <mxPoint x="299.7599999999999" y="170" as="targetPoint" />
          </mxGeometry>
        </mxCell>
        <mxCell id="d8wcmGQswvMuVtuhtJbX-8" value="pallet" style="edgeLabel;html=1;align=center;verticalAlign=middle;resizable=0;points=[];" parent="d8wcmGQswvMuVtuhtJbX-7" vertex="1" connectable="0">
          <mxGeometry x="-0.3238" y="-1" relative="1" as="geometry">
            <mxPoint as="offset" />
          </mxGeometry>
        </mxCell>
        <mxCell id="d8wcmGQswvMuVtuhtJbX-14" value="" style="edgeStyle=orthogonalEdgeStyle;rounded=0;orthogonalLoop=1;jettySize=auto;html=1;fontColor=#000000;entryX=0.5;entryY=0;entryDx=0;entryDy=0;" parent="n1AVyUTCbMts56fec_Y9-1" source="d8wcmGQswvMuVtuhtJbX-11" target="d8wcmGQswvMuVtuhtJbX-16" edge="1">
          <mxGeometry relative="1" as="geometry" />
        </mxCell>
        <mxCell id="d8wcmGQswvMuVtuhtJbX-15" value="picking" style="edgeLabel;html=1;align=center;verticalAlign=middle;resizable=0;points=[];fontColor=#000000;" parent="d8wcmGQswvMuVtuhtJbX-14" vertex="1" connectable="0">
          <mxGeometry x="-0.1134" relative="1" as="geometry">
            <mxPoint as="offset" />
          </mxGeometry>
        </mxCell>
        <mxCell id="d8wcmGQswvMuVtuhtJbX-21" style="edgeStyle=orthogonalEdgeStyle;rounded=0;orthogonalLoop=1;jettySize=auto;html=1;fontColor=#000000;" parent="n1AVyUTCbMts56fec_Y9-1" source="d8wcmGQswvMuVtuhtJbX-11" target="d8wcmGQswvMuVtuhtJbX-13" edge="1">
          <mxGeometry relative="1" as="geometry" />
        </mxCell>
        <mxCell id="d8wcmGQswvMuVtuhtJbX-22" value="load" style="edgeLabel;html=1;align=center;verticalAlign=middle;resizable=0;points=[];fontColor=#000000;" parent="d8wcmGQswvMuVtuhtJbX-21" vertex="1" connectable="0">
          <mxGeometry x="0.1534" y="-2" relative="1" as="geometry">
            <mxPoint as="offset" />
          </mxGeometry>
        </mxCell>
        <mxCell id="d8wcmGQswvMuVtuhtJbX-11" value="&lt;div&gt;tbBizTypeCode&lt;/div&gt;&lt;div&gt;操作类型&lt;/div&gt;" style="rhombus;whiteSpace=wrap;html=1;fontColor=#000000;fillColor=#FFFFFF;" parent="n1AVyUTCbMts56fec_Y9-1" vertex="1">
          <mxGeometry x="410" y="80" width="80" height="80" as="geometry" />
        </mxCell>
        <mxCell id="d8wcmGQswvMuVtuhtJbX-12" value="gtbsBizTypeCode&lt;br&gt;退货类型" style="rhombus;whiteSpace=wrap;html=1;fontColor=#000000;fillColor=#FFFFFF;" parent="n1AVyUTCbMts56fec_Y9-1" vertex="1">
          <mxGeometry x="260" y="200" width="80" height="80" as="geometry" />
        </mxCell>
        <mxCell id="d8wcmGQswvMuVtuhtJbX-13" value="updateBoxInfo" style="whiteSpace=wrap;html=1;fillColor=#FFFFFF;" parent="n1AVyUTCbMts56fec_Y9-1" vertex="1">
          <mxGeometry x="390" y="210" width="120" height="60" as="geometry" />
        </mxCell>
        <mxCell id="d8wcmGQswvMuVtuhtJbX-17" style="edgeStyle=orthogonalEdgeStyle;rounded=0;orthogonalLoop=1;jettySize=auto;html=1;fontColor=#000000;exitX=0;exitY=0.5;exitDx=0;exitDy=0;entryX=1;entryY=0.5;entryDx=0;entryDy=0;" parent="n1AVyUTCbMts56fec_Y9-1" source="d8wcmGQswvMuVtuhtJbX-16" target="d8wcmGQswvMuVtuhtJbX-13" edge="1">
          <mxGeometry relative="1" as="geometry" />
        </mxCell>
        <mxCell id="d8wcmGQswvMuVtuhtJbX-18" value="rtw1好品回仓" style="edgeLabel;html=1;align=center;verticalAlign=middle;resizable=0;points=[];fontColor=#000000;" parent="d8wcmGQswvMuVtuhtJbX-17" vertex="1" connectable="0">
          <mxGeometry x="-0.1378" y="-1" relative="1" as="geometry">
            <mxPoint as="offset" />
          </mxGeometry>
        </mxCell>
        <mxCell id="d8wcmGQswvMuVtuhtJbX-16" value="gtbsBizTypeCode&lt;br&gt;退货类型" style="rhombus;whiteSpace=wrap;html=1;fontColor=#000000;fillColor=#FFFFFF;" parent="n1AVyUTCbMts56fec_Y9-1" vertex="1">
          <mxGeometry x="650" y="200" width="80" height="80" as="geometry" />
        </mxCell>
        <mxCell id="d8wcmGQswvMuVtuhtJbX-19" value="" style="edgeStyle=orthogonalEdgeStyle;rounded=0;orthogonalLoop=1;jettySize=auto;html=1;exitX=0.5;exitY=1;exitDx=0;exitDy=0;entryX=1;entryY=0.5;entryDx=0;entryDy=0;" parent="n1AVyUTCbMts56fec_Y9-1" source="d8wcmGQswvMuVtuhtJbX-16" target="d8wcmGQswvMuVtuhtJbX-1" edge="1">
          <mxGeometry relative="1" as="geometry">
            <mxPoint x="309.9999999999999" y="290" as="sourcePoint" />
            <mxPoint x="190" y="249.9999999999999" as="targetPoint" />
          </mxGeometry>
        </mxCell>
        <mxCell id="d8wcmGQswvMuVtuhtJbX-20" value="rts回仓退厂" style="edgeLabel;html=1;align=center;verticalAlign=middle;resizable=0;points=[];" parent="d8wcmGQswvMuVtuhtJbX-19" vertex="1" connectable="0">
          <mxGeometry x="-0.3238" y="-1" relative="1" as="geometry">
            <mxPoint as="offset" />
          </mxGeometry>
        </mxCell>
      </root>
    </mxGraphModel>
  </diagram>
</mxfile>
